<svg enable-background="new 0 0 84.3 20" viewBox="0 0 84.3 20" xmlns="http://www.w3.org/2000/svg"><path d="m19.6 0c-5.5 0-10 4.5-10 10s4.5 10 10 10 10-4.5 10-10-4.5-10-10-10zm0 18.3c-4.6 0-8.3-3.7-8.3-8.3s3.7-8.3 8.3-8.3 8.3 3.7 8.3 8.3c-.1 4.6-3.8 8.3-8.3 8.3z"/><path d="m0 7.8v12.2h1.7v-12.2c0-3.4 2.7-6.1 6.1-6.1h1.7v-1.7h-1.7c-4.3 0-7.8 3.5-7.8 7.8z"/><path d="m57 18.3c-1.9 0-3.6-.6-5-1.7l12.7-12.9c-1.8-2.2-4.6-3.7-7.7-3.7-5.5 0-10 4.5-10 10s4.5 10 10 10c3.3 0 6.3-1.6 8.1-4.1l-1.2-1.2c-1.6 2.1-4.1 3.6-6.9 3.6zm-8.3-8.3c0-4.6 3.7-8.3 8.3-8.3 2 0 3.9.7 5.4 2l-11.7 11.7c-1.3-1.5-2-3.4-2-5.4z"/><path d="m33.6 5c0-2.1 2.3-3.3 4.5-3.3 1.9 0 3.6.8 4.2 2l1.3-1.3c-1.2-1.4-3.3-2.4-5.7-2.4-2 0-6.1 1.1-6.1 5 0 6.4 10.8 4 10.8 9.3v.1c0 2.1-2.4 3.9-5.3 3.9-2.2 0-4-1-4.8-2.3l-1.2 1.2c1.2 1.7 3.5 2.8 6.1 2.8 3.9 0 7-2.5 7-5.7 0-6.8-10.8-4.8-10.8-9.3z"/><path d="m76.5 0c-4.3 0-7.8 3.5-7.8 7.8v12.2h1.7v-12.2c0-3.4 2.7-6.1 6.1-6.1s6.1 2.7 6.1 6.1v12.2h1.7v-12.2c0-4.3-3.5-7.8-7.8-7.8z"/></svg>